<svg width="12" height="12" viewBox="0 0 12 12" fill="none" xmlns="http://www.w3.org/2000/svg">
<path d="M11.3051 5.94155C11.3051 6.44155 10.9051 6.84155 10.4051 6.84155H6.80508V10.2416C6.80508 10.7416 6.40508 11.1416 5.90508 11.1416C5.40508 11.1416 5.00508 10.7416 5.00508 10.2416V6.84155H1.60508C1.10508 6.84155 0.705078 6.44155 0.705078 5.94155C0.705078 5.44155 1.10508 5.04155 1.60508 5.04155H5.00508V1.44155C5.00508 0.941554 5.40508 0.541553 5.90508 0.541553C6.40508 0.541553 6.80508 0.941554 6.80508 1.44155V5.04155H10.4051C10.9051 5.04155 11.3051 5.44155 11.3051 5.94155Z" fill="#E15113"/>
</svg>
